<svg width="81" height="86" viewBox="0 0 81 86" fill="none" xmlns="http://www.w3.org/2000/svg">
<rect x="3.5" y="30.2185" width="73.001" height="52.2816" rx="14.5" stroke="white" stroke-width="7"/>
<line x1="4.84851" y1="55.1165" x2="80.0053" y2="55.1165" stroke="white" stroke-width="10"/>
<line x1="22.4751" y1="84.6782" x2="22.4751" y2="26.7184" stroke="white" stroke-width="10"/>
<path d="M64.8795 12.0282C65.5544 13.2358 65.6485 15.1962 64.334 17.792C63.0393 20.3488 60.5551 23.0676 57.0842 25.1381C53.6133 27.2087 50.0924 28.0721 47.3021 27.9523C44.4691 27.8306 42.873 26.7662 42.1982 25.5585C41.5234 24.3508 41.4293 22.3904 42.7437 19.7946C44.0384 17.2379 46.5226 14.5191 49.9935 12.4485C53.4645 10.378 56.9854 9.5145 59.7757 9.63436C62.6086 9.75605 64.2047 10.8205 64.8795 12.0282Z" stroke="white" stroke-width="7"/>
<path d="M16.7088 11.0534C17.4399 9.89017 19.0835 8.9122 21.9219 8.9439C24.7162 8.97511 28.1911 10.0285 31.5548 12.2856C34.9186 14.5426 37.2633 17.3941 38.4275 20.019C39.61 22.6853 39.4138 24.6345 38.6827 25.7977C37.9516 26.9609 36.3081 27.9388 33.4697 27.9071C30.6753 27.8759 27.2005 26.8225 23.8367 24.5655C20.473 22.3084 18.1282 19.4569 16.9641 16.832C15.7816 14.1657 15.9778 12.2165 16.7088 11.0534Z" stroke="white" stroke-width="7"/>
</svg>
