<svg width="1440" height="1243" viewBox="0 0 1440 1243" fill="none" xmlns="http://www.w3.org/2000/svg">
<rect y="127" width="1440" height="1007" fill="#AAD3B5"/>
<path d="M1758.5 235.5C1758.5 364.109 1650.9 468.5 1518 468.5C1385.1 468.5 1277.5 364.109 1277.5 235.5C1277.5 106.891 1385.1 2.5 1518 2.5C1650.9 2.5 1758.5 106.891 1758.5 235.5Z" stroke="white" stroke-width="5"/>
<path d="M1748.5 367.5C1748.5 471.839 1662.36 556.5 1556 556.5C1449.64 556.5 1363.5 471.839 1363.5 367.5C1363.5 263.161 1449.64 178.5 1556 178.5C1662.36 178.5 1748.5 263.161 1748.5 367.5Z" stroke="white" stroke-width="5"/>
<path d="M108 1035.5C108 1147.91 27.0991 1238 -71.5 1238C-170.099 1238 -251 1147.91 -251 1035.5C-251 923.094 -170.099 833 -71.5 833C27.0991 833 108 923.094 108 1035.5Z" stroke="white" stroke-width="10"/>
</svg>
